<?xml version="1.0" encoding="UTF-8" standalone="no"?>
<svg
   xmlns:dc="http://purl.org/dc/elements/1.1/"
   xmlns:cc="http://creativecommons.org/ns#"
   xmlns:rdf="http://www.w3.org/1999/02/22-rdf-syntax-ns#"
   xmlns:svg="http://www.w3.org/2000/svg"
   xmlns="http://www.w3.org/2000/svg"
   xmlns:sodipodi="http://sodipodi.sourceforge.net/DTD/sodipodi-0.dtd"
   xmlns:inkscape="http://www.inkscape.org/namespaces/inkscape"
   inkscape:version="1.0 (4035a4f, 2020-05-01)"
   sodipodi:docname="noun_type_641364.svg"
   id="svg887"
   xml:space="preserve"
   enable-background="new 0 0 0 0"
   viewBox="0 0 170 110"
   y="30px"
   x="30px"
   version="1.1"><metadata
     id="metadata893"><rdf:RDF><cc:Work
         rdf:about=""><dc:format>image/svg+xml</dc:format><dc:type
           rdf:resource="http://purl.org/dc/dcmitype/StillImage" /><dc:title></dc:title></cc:Work></rdf:RDF></metadata><defs
     id="defs891" /><sodipodi:namedview
     inkscape:current-layer="svg887"
     inkscape:window-maximized="30px"
     inkscape:window-y="0"
     inkscape:window-x="0"
     inkscape:cy="10"
     inkscape:cx="26.538462"
     inkscape:zoom="5"
     showgrid="false"
     id="namedview889"
     inkscape:window-height="100"
     inkscape:window-width="400"
     inkscape:pageshadow="2"
     inkscape:pageopacity="0"
     guidetolerance="10"
     gridtolerance="10"
     objecttolerance="10"
     borderopacity="1"
     bordercolor="#666666"
     pagecolor="#ffffff" /><g
     id="g837"><g
       id="g835"><path
         id="path833"
         d="M79,21.5c0,23,0,46,0,69c0.5-0.5,1-1,1.5-1.5c-20.333,0-40.667,0-61,0c0.5,0.5,1,1,1.5,1.5c0-27,0-54,0-81    c-0.5,0.5-1,1-1.5,1.5c12.118,0,24.237,0,36.355,0c2.742,0,5.485,0,8.229,0c0.703,0,1.406,0,2.109,0    c1.152,0-1.219-0.95-0.186-0.056c4.478,3.872,8.954,7.744,13.432,11.616c1.455,1.259,3.587-0.854,2.121-2.121    c-4.477-3.872-8.954-7.744-13.432-11.616C65.819,6.825,60.299,8,57.514,8C44.842,8,32.171,8,19.5,8C18.682,8,18,8.682,18,9.5    c0,27,0,54,0,81c0,0.817,0.682,1.5,1.5,1.5c20.333,0,40.667,0,61,0c0.817,0,1.5-0.683,1.5-1.5c0-23,0-46,0-69    C82,19.565,79,19.565,79,21.5z"
         fill="#000000" /></g></g><path
     id="path839"
     d="M80.5,18.626"
     stroke="#231F20"
     fill="#000000" /><path
     id="path841"
     d="M68.952,9.5"
     stroke="#231F20"
     fill="#000000" /><g
     id="g847"><g
       id="g845"><path
         id="path843"
         d="M64.125,10.5c0,4,0,8,0,12c0,0.818,0.683,1.5,1.5,1.5c4.625,0,9.25,0,13.875,0c1.935,0,1.935-3,0-3    c-4.625,0-9.25,0-13.875,0c0.5,0.5,1,1,1.5,1.5c0-4,0-8,0-12C67.125,8.565,64.125,8.565,64.125,10.5L64.125,10.5z"
         fill="#000000" /></g></g><g
     id="g853"><g
       id="g851"><path
         id="path849"
         d="M19.5,75.25c20.333,0,40.667,0,61,0c0.968,0,0.968-1.5,0-1.5c-20.333,0-40.667,0-61,0    C18.533,73.75,18.533,75.25,19.5,75.25L19.5,75.25z"
         fill="#000000" /></g></g><g
     id="g859"><g
       id="g857"><path
         id="path855"
         d="M19.5,58.25c20.333,0,40.667,0,61,0c0.968,0,0.968-1.5,0-1.5c-20.333,0-40.667,0-61,0    C18.533,56.75,18.533,58.25,19.5,58.25L19.5,58.25z"
         fill="#000000" /></g></g><g
     id="g865"><g
       id="g863"><path
         id="path861"
         d="M19.5,78.459c20.333,0,40.667,0,61,0c1.451,0,1.451-2.25,0-2.25c-20.333,0-40.667,0-61,0    C18.049,76.209,18.049,78.459,19.5,78.459L19.5,78.459z"
         fill="#000000" /></g></g><g
     id="g871"><g
       id="g869"><path
         id="path867"
         d="M19.821,55.959c20.119,0,40.238,0,60.357,0c1.451,0,1.451-2.25,0-2.25c-20.119,0-40.238,0-60.357,0    C18.37,53.709,18.37,55.959,19.821,55.959L19.821,55.959z"
         fill="#000000" /></g></g><g
     id="g881"><path
       id="path873"
       d="M32.959,71.333l3.438-10.179h2.789l3.438,10.179h-2.632l-0.636-2.078h-3.199l-0.636,2.078H32.959z M38.797,67.409   l-1.039-3.356l-1.039,3.356H38.797z" /><path
       id="path875"
       d="M48.668,68.346c0,0.442-0.075,0.857-0.226,1.248c-0.15,0.389-0.378,0.721-0.684,0.994c-0.342,0.31-0.745,0.538-1.21,0.684   s-1,0.219-1.606,0.219c-0.451,0-0.875-0.018-1.271-0.051c-0.396-0.035-0.745-0.084-1.046-0.147v-2.064h0.232   c0.205,0.082,0.419,0.158,0.643,0.229c0.224,0.07,0.511,0.105,0.861,0.105c0.451,0,0.799-0.063,1.043-0.191   c0.243-0.128,0.415-0.306,0.516-0.533c0.104-0.224,0.163-0.482,0.174-0.775c0.012-0.295,0.018-0.621,0.018-0.981V63H43.78v-1.846   h4.888V68.346z" /><path
       id="path877"
       d="M49.55,71.333l3.438-10.179h2.789l3.438,10.179h-2.632l-0.636-2.078h-3.199l-0.636,2.078H49.55z M55.388,67.409   l-1.039-3.356l-1.039,3.356H55.388z" /><path
       id="path879"
       d="M68.841,71.333h-2.967l-1.955-3.247l-1.996,3.247h-2.83l3.302-5.127l-3.172-5.052h2.96l1.832,3.069l1.88-3.069h2.837   l-3.192,4.949L68.841,71.333z" /></g><text
     style="letter-spacing:0px"
     id="text883"
     font-family="'Helvetica Neue', Helvetica, Arial-Unicode, Arial, Sans-serif"
     font-weight="bold"
     font-size="2px"
     fill="#000000"
     y="0"
     x="0" /></svg>
